<svg xmlns="http://www.w3.org/2000/svg" width="40" height="58" viewBox="0 0 40 58">
    <g fill="#C1BFAB" opacity=".6">
        <path stroke="#C1BFAB" strokeWidth=".5" d="M20 54.634c11.046 0 20-7.239 20-18.211C40 25.45 21.838 0 20 0 18.162 0 0 25.45 0 36.423c0 10.972 8.954 18.211 20 18.211zm0-50.04l.815 1.014.44.569c2.022 2.635 4.395 6.1 6.597 9.67 5.374 8.712 8.815 16.52 8.815 20.576C36.667 45.136 29.653 51.3 20 51.3c-9.653 0-16.667-6.165-16.667-14.878 0-4.056 3.441-11.864 8.815-20.576 2.202-3.57 4.575-7.035 6.597-9.67l.86-1.098c.136-.169.267-.33.395-.485z" transform="translate(0 1)"/>
        <path d="M20.488 48.496c7.386 0 13.374-5.988 13.374-13.374 0-.92-.746-1.667-1.667-1.667-.92 0-1.667.746-1.667 1.667 0 5.545-4.495 10.04-10.04 10.04-.92 0-1.667.747-1.667 1.667s.746 1.667 1.667 1.667z" transform="translate(0 1)"/>
    </g>
</svg>
