<?xml version="1.0" encoding="UTF-8"?>
<svg width="73px" height="49px" viewBox="0 0 73 49" version="1.1" xmlns="http://www.w3.org/2000/svg" xmlns:xlink="http://www.w3.org/1999/xlink">
    <!-- Generator: sketchtool 62 (101010) - https://sketch.com -->
    <title>F5F07193-0979-42D7-B190-C8861E988E8E</title>
    <desc>Created with sketchtool.</desc>
    <defs>
        <path d="M109.599984,64.324857 L75.5283626,52.6202528 C74.9671829,52.4599157 74.4861718,52.4599157 73.9249922,52.6202528 L39.8533704,64.324857 C38.8913482,64.645531 38.25,65.5273848 38.25,66.5695756 C38.25,67.6117663 38.8111797,68.4936201 39.7732019,68.8944627 L49.0727504,72.5020462 L49.0727504,87.5737282 C49.0727504,88.455582 49.6339301,89.2572672 50.4356153,89.6581098 L69.2752179,99.3585009 C72.7224643,101.04204 76.7308904,101.04204 80.1781369,99.3585009 L99.0177395,89.6581098 C99.8194247,89.2572672 100.380604,88.455582 100.380604,87.5737282 L100.380604,72.5020462 L105.591558,70.4176646 L105.591558,84.4471559 C105.591558,85.8100208 106.633749,86.8522115 107.996614,86.8522115 C109.27931,86.9323801 110.321501,85.8901893 110.40167,84.6074929 C110.40167,84.5273244 110.40167,84.5273244 110.40167,84.4471559 L110.40167,68.4134516 C110.882681,67.9324404 111.203355,67.2910923 111.203355,66.5695756 C111.203355,65.5273848 110.562007,64.645531 109.599984,64.324857 Z M95.570493,86.0505263 L78.0135868,95.0294008 C75.9292052,96.0715915 73.5241495,96.0715915 71.439768,95.0294008 L53.8828617,86.0505263 L53.8828617,74.3459222 L73.8448236,82.1222688 C74.4060033,82.3627743 75.0473515,82.3627743 75.6085311,82.1222688 L95.570493,74.3459222 L95.570493,86.0505263 Z M74.7266774,77.3121575 L47.629717,66.8100811 L74.7266774,57.5105326 L101.823638,66.8100811 L74.7266774,77.3121575 Z" id="path-1"></path>
    </defs>
    <g id="Hi-Fidelity-Prototype" stroke="none" stroke-width="1" fill="none" fill-rule="evenodd" opacity="0.6">
        <g id="Qui-est-Woke" transform="translate(-570.000000, -4593.000000)">
            <g id="bloc-icons" transform="translate(166.000000, 4540.000000)">
                <g id="icon-2" transform="translate(365.000000, 0.000000)">
                    <g id="Icons/Qui-sommes/Icon/Education">
                        <g transform="translate(0.750000, 0.750000)">
                            <rect id="Rectangle" fill="#FFFFFF" opacity="0" x="0.25" y="0.25" width="152" height="152"></rect>
                            <mask id="mask-2" fill="white">
                                <use xlink:href="#path-1"></use>
                            </mask>
                            <use id="Shape" fill="#000000" fill-rule="nonzero" xlink:href="#path-1"></use>
                            <g id="Colors/BrownDark" mask="url(#mask-2)" fill="#C1BFAB">
                                <g transform="translate(-508.000000, -451.000000)" id="Colors/BrownLight">
                                    <rect x="0" y="0" width="1168.5" height="1007"></rect>
                                </g>
                            </g>
                        </g>
                    </g>
                </g>
            </g>
        </g>
    </g>
</svg>