<?xml version="1.0" encoding="UTF-8"?>
<svg width="68px" height="58px" viewBox="0 0 68 58" version="1.1" xmlns="http://www.w3.org/2000/svg" xmlns:xlink="http://www.w3.org/1999/xlink">
    <!-- Generator: sketchtool 62 (101010) - https://sketch.com -->
    <title>717F0A98-6C74-4CB2-9B4E-08DA3E195576</title>
    <desc>Created with sketchtool.</desc>
    <g id="Hi-Fidelity-Prototype" stroke="none" stroke-width="1" fill="none" fill-rule="evenodd" opacity="0.6">
        <g id="Qui-est-Woke" transform="translate(-1424.000000, -4584.000000)" fill="#C1BFAB" fill-rule="nonzero">
            <g id="Icons/Qui-sommes/Icon/Poverty" transform="translate(1457.500000, 4613.000000) scale(-1, 1) translate(-1457.500000, -4613.000000) translate(1423.000000, 4582.000000)">
                <g transform="translate(0.000000, 0.941176)">
                    <path d="M1.25346021,57.5565052 L11.2811419,57.5565052 C11.9663668,57.5565052 12.5346021,56.9882699 12.5346021,56.303045 L12.5346021,33.7240484 C12.5346021,33.0388235 11.9663668,32.4705882 11.2811419,32.4705882 L1.25346021,32.4705882 C0.568235294,32.4705882 0,33.0388235 0,33.7240484 L0,56.303045 C0,56.9882699 0.568235294,57.5565052 1.25346021,57.5565052 Z M2.50692042,34.9775087 L10.0276817,34.9775087 L10.0276817,55.0495848 L2.50692042,55.0495848 L2.50692042,34.9775087 Z" id="Shape"></path>
                    <path d="M32.1291696,54.923216 L32.1291696,25.3843599 C32.1291696,23.5783218 30.6523357,22.1014879 28.8462976,22.1014879 L18.8186159,22.1014879 C17.0125778,22.1014879 15.5357439,23.5783218 15.5357439,25.3843599 L15.5357439,54.923216 C15.5357439,56.7292541 17.0125778,58.206088 18.8186159,58.206088 L28.8462976,58.206088 C30.6523357,58.206088 32.1291696,56.7292541 32.1291696,54.923216 Z M19.5945675,54.1472645 L19.5945675,26.1603114 L28.070346,26.1603114 L28.070346,54.1472645 L19.5945675,54.1472645 Z" id="Path"></path>
                    <path d="M46.3947405,12.0570934 L36.3670588,12.0570934 C34.5610207,12.0570934 33.0841869,13.5339273 33.0841869,15.3399654 L33.0841869,54.923216 C33.0841869,56.7292541 34.5610207,58.206088 36.3670588,58.206088 L46.3947405,58.206088 C48.2007786,58.206088 49.6776125,56.7292541 49.6776125,54.923216 L49.6776125,15.3399654 C49.6776125,13.5322899 48.2159499,12.0570934 46.3947405,12.0570934 Z M45.6187889,16.115917 L45.6187889,54.1472645 L37.1430104,54.1472645 L37.1430104,16.115917 L45.6187889,16.115917 Z" id="Path"></path>
                    <path d="M50.6493426,5.31228374 L50.6493426,54.923216 C50.6493426,56.7292541 52.1261765,58.206088 53.9322145,58.206088 L63.9598962,58.206088 C65.7659343,58.206088 67.2427682,56.7292541 67.2427682,54.923216 L67.2427682,5.31228374 C67.2427682,3.50624565 65.7659343,2.02941176 63.9598962,2.02941176 L53.9322145,2.02941176 C52.1110051,2.02941176 50.6493426,3.50460825 50.6493426,5.31228374 Z M63.1839446,6.08823529 L63.1839446,54.1472645 L54.7081661,54.1472645 L54.7081661,6.08823529 L63.1839446,6.08823529 Z" id="Path"></path>
                </g>
            </g>
        </g>
    </g>
</svg>