<?xml version="1.0" encoding="UTF-8"?>
<svg width="67px" height="55px" viewBox="0 0 67 55" version="1.1" xmlns="http://www.w3.org/2000/svg" xmlns:xlink="http://www.w3.org/1999/xlink">
    <!-- Generator: sketchtool 62 (101010) - https://sketch.com -->
    <title>616F4A99-AAC0-432D-82C9-2CAC150EC130</title>
    <desc>Created with sketchtool.</desc>
    <defs>
        <path d="M17.9471959,0.534121622 C19.8611997,0.534121622 21.5249985,1.75381285 22.1930246,3.48479101 L22.3499647,3.96902027 L45.131175,3.96902027 C45.5626325,2.14665736 47.1160728,0.779024115 49.0342615,0.563740539 L49.5658784,0.534121622 L55.0264865,0.534121622 C56.9404902,0.534121622 58.6042891,1.75381285 59.2723151,3.48479101 L59.4292553,3.96902027 L61.6320608,3.96902027 C64.3168638,3.96902027 66.5716316,5.99720005 66.932471,8.68243613 L66.9789527,9.22783784 L66.9789527,49.3897297 C66.9789527,52.0704886 64.8701565,54.3468322 62.2504213,54.6209035 L61.7201351,54.6485473 L5.96908784,54.6485473 C3.28832901,54.6485473 1.01198536,52.5397511 0.737914114,49.9200159 L0.71027027,49.3897297 L0.71027027,9.22783784 C0.71027027,6.54707901 2.8190665,4.27073536 5.43880171,3.99666411 L5.96908784,3.96902027 L8.13995876,3.96902027 C8.57141632,2.14665736 10.1248565,0.779024115 12.0430453,0.563740539 L12.5746622,0.534121622 L17.9471959,0.534121622 Z M61.5439865,8.14530405 L5.79293919,8.14530405 C5.21751662,8.14530405 4.71040541,8.65241527 4.71040541,9.22783784 L4.71040541,49.3897297 C4.71040541,49.9651523 5.21751662,50.4722635 5.79293919,50.4722635 L61.6320608,50.4722635 C62.0637574,50.4722635 62.4570057,50.1868421 62.6265203,49.8012847 L62.6265203,9.22783784 C62.6265203,8.65241527 62.1194091,8.14530405 61.5439865,8.14530405 Z" id="path-1"></path>
        <path d="M48.8612838,22.9674324 L40.0538514,22.9674324 L40.0538514,14.16 C40.0538514,13.5434797 39.6134797,13.1031081 38.9969595,13.1031081 L28.4280405,13.1031081 C27.8115203,13.1031081 27.3711486,13.5434797 27.3711486,14.16 L27.3711486,22.9674324 L18.5637162,22.9674324 C17.9471959,22.9674324 17.5068243,23.4078041 17.5068243,24.0243243 L17.5068243,34.5932432 C17.5068243,35.2097635 17.9471959,35.6501351 18.5637162,35.6501351 L27.3711486,35.6501351 L27.3711486,44.5456419 C27.3711486,45.1621622 27.8115203,45.6025338 28.4280405,45.6025338 L38.9969595,45.6025338 C39.6134797,45.6025338 40.0538514,45.1621622 40.0538514,44.5456419 L40.0538514,35.6501351 L48.8612838,35.6501351 C49.4778041,35.6501351 49.9181757,35.2097635 49.9181757,34.5932432 L49.9181757,24.0243243 C49.9181757,23.4078041 49.4778041,22.9674324 48.8612838,22.9674324 Z M47.8924662,33.5363514 L38.9969595,33.5363514 C38.3804392,33.5363514 37.9400676,33.976723 37.9400676,34.5932432 L37.9400676,43.4006757 L29.4849324,43.4006757 L29.4849324,34.5932432 C29.4849324,33.976723 29.0445608,33.5363514 28.4280405,33.5363514 L19.6206081,33.5363514 L19.6206081,25.0812162 L28.4280405,25.0812162 C29.0445608,25.0812162 29.4849324,24.6408446 29.4849324,24.0243243 L29.4849324,15.1288176 L37.9400676,15.1288176 L37.9400676,24.0243243 C37.9400676,24.6408446 38.3804392,25.0812162 38.9969595,25.0812162 L47.8924662,25.0812162 L47.8924662,33.5363514 L47.8924662,33.5363514 Z" id="path-3"></path>
    </defs>
    <g id="Hi-Fidelity-Prototype" stroke="none" strokeWidth="1" fill="none" fillRule="evenodd" opacity="0.6">
        <g id="Qui-est-Woke" transform="translate(-966.000000, -4586.000000)">
            <g id="Icons/Qui-sommes/Icon/Urgence" transform="translate(934.000000, 4546.000000)">
                <g>
                    <rect id="Rectangle" fill="#FFFFFF" opacity="0" x="0" y="0" width="132" height="132"></rect>
                    <g id="Group" transform="translate(31.875000, 40.125000)">
                        <mask id="mask-2" fill="white">
                            <use xlink:href="#path-1"></use>
                        </mask>
                        <use id="Shape" fill="#A3944A" fillRule="nonzero" xlink:href="#path-1"></use>
                        <g id="Colors/BrownDark" mask="url(#mask-2)" fill="#C1BFAB">
                            <g transform="translate(-473.250000, -411.375000)" id="Colors/BrownLight">
                                <rect x="0" y="0" width="1014.75" height="874.5"></rect>
                            </g>
                        </g>
                        <mask id="mask-4" fill="white">
                            <use xlink:href="#path-3"></use>
                        </mask>
                        <path stroke="#C1BFAB" strokeWidth="0.5" d="M50.1681757,24.0243243 L50.1681757,34.5932432 C50.1681757,34.97442 50.0284131,35.2989494 49.7977015,35.529661 C49.5669899,35.7603726 49.2424606,35.9001351 48.8612838,35.9001351 L40.3038514,35.9001351 L40.3038514,44.5456419 C40.3038514,44.9268187 40.1640888,45.251348 39.9333772,45.4820596 C39.7026656,45.7127713 39.3781363,45.8525338 38.9969595,45.8525338 L28.4280405,45.8525338 C28.0468637,45.8525338 27.7223344,45.7127713 27.4916228,45.4820596 C27.2609112,45.251348 27.1211486,44.9268187 27.1211486,44.5456419 L27.1211486,35.9001351 L18.5637162,35.9001351 C18.1825394,35.9001351 17.8580101,35.7603726 17.6272985,35.529661 C17.3965869,35.2989494 17.2568243,34.97442 17.2568243,34.5932432 L17.2568243,24.0243243 C17.2568243,23.6431475 17.3965869,23.3186182 17.6272985,23.0879066 C17.8580101,22.857195 18.1825394,22.7174324 18.5637162,22.7174324 L27.1211486,22.7174324 L27.1211486,14.16 C27.1211486,13.7788232 27.2609112,13.4542939 27.4916228,13.2235823 C27.7223344,12.9928706 28.0468637,12.8531081 28.4280405,12.8531081 L38.9969595,12.8531081 C39.3781363,12.8531081 39.7026656,12.9928706 39.9333772,13.2235823 C40.1640888,13.4542939 40.3038514,13.7788232 40.3038514,14.16 L40.3038514,22.7174324 L48.8612838,22.7174324 C49.2424606,22.7174324 49.5669899,22.857195 49.7977015,23.0879066 C50.0284131,23.3186182 50.1681757,23.6431475 50.1681757,24.0243243 Z M29.7349324,24.0243243 C29.7349324,24.4055011 29.5951699,24.7300304 29.3644583,24.9607421 C29.1337467,25.1914537 28.8092173,25.3312162 28.4280405,25.3312162 L19.8706081,25.3312162 L19.8706081,33.2863514 L28.4280405,33.2863514 C28.8092173,33.2863514 29.1337467,33.4261139 29.3644583,33.6568255 C29.5951699,33.8875371 29.7349324,34.2120664 29.7349324,34.5932432 L29.7349324,43.1506757 L37.6900676,43.1506757 L37.6900676,34.5932432 C37.6900676,34.2120664 37.8298301,33.8875371 38.0605417,33.6568255 C38.2912533,33.4261139 38.6157827,33.2863514 38.9969595,33.2863514 L47.6424662,33.2863514 L47.6424662,25.3312162 L38.9969595,25.3312162 C38.6157827,25.3312162 38.2912533,25.1914537 38.0605417,24.9607421 C37.8298301,24.7300304 37.6900676,24.4055011 37.6900676,24.0243243 L37.6900676,15.3788176 L29.7349324,15.3788176 L29.7349324,24.0243243 Z"></path>
                        <g id="Colors/BrownDark" mask="url(#mask-4)" fill="#C1BFAB">
                            <g transform="translate(-489.868176, -308.250000)" id="Colors/BrownLight">
                                <rect x="0" y="0" width="1014.75" height="874.5"></rect>
                            </g>
                        </g>
                    </g>
                </g>
            </g>
        </g>
    </g>
</svg>
