<?xml version="1.0" encoding="UTF-8"?>
<svg width="120px" height="37px" viewBox="0 0 120 37" version="1.1" xmlns="http://www.w3.org/2000/svg" xmlns:xlink="http://www.w3.org/1999/xlink">
    <!-- Generator: sketchtool 58 (101010) - https://sketch.com -->
    <title>8CF48827-3298-4175-94C9-3CCEACCFC163</title>
    <desc>Created with sketchtool.</desc>
    <defs>
        <polygon id="path-1" points="0.0104856925 0.145685798 47.9023036 0.145685798 47.9023036 33.9296619 0.0104856925 33.9296619"></polygon>
    </defs>
    <g id="Hi-Fidelity-Prototype" stroke="none" stroke-width="1" fill="none" fill-rule="evenodd">
        <g id="Home-Intro" transform="translate(-252.000000, -77.000000)">
            <g id="Header" transform="translate(165.000000, 64.000000)">
                <g id="Logo" transform="translate(87.000000, 13.000000)">
                    <g id="Group-3" transform="translate(71.165868, 1.396053)">
                        <mask id="mask-2" fill="white">
                            <use xlink:href="#path-1"></use>
                        </mask>
                        <g id="Clip-2"></g>
                        <path d="M25.5085245,32.7684539 L25.5085245,1.21978881 C21.1569621,6.61668359 16.8509036,11.9583303 12.5300069,17.318393 C16.8424953,22.4519882 21.1534998,27.5840902 25.5085245,32.7684539 M0.0109803007,6.77446425 C0.0154317739,5.87805112 0.0218616797,4.98114027 0.0238401123,4.08472714 C0.0258185448,2.87623682 0.0238401123,1.66874197 0.0243347204,0.459753916 C0.0243347204,0.123785644 -0.00435255162,0.153151759 0.316153522,0.153151759 C1.98743442,0.153151759 3.65822072,0.15364949 5.32900701,0.153151759 C5.66237289,0.152654028 5.6262665,0.141703951 5.6262665,0.456269801 C5.62676111,2.57311878 5.62676111,4.69096323 5.62676111,6.80880767 L5.62676111,16.710166 L5.62676111,17.0680344 C5.75090775,17.0590752 5.77860581,16.979936 5.82163671,16.9266788 C9.70678364,12.1161109 13.5904467,7.30454752 17.4741099,2.49298413 C18.0196626,1.81656801 18.5736237,1.14662238 19.1073059,0.460251647 C19.281408,0.236272798 19.4649076,0.145685798 19.7557372,0.145685798 C27.999371,0.155142682 36.2425103,0.153151759 44.4856495,0.153151759 L47.6046484,0.153151759 C47.927133,0.15364949 47.8989403,0.124283374 47.8989403,0.457762993 C47.8994349,2.13959528 47.8999295,3.82092983 47.8989403,5.50276212 C47.8984457,5.8178257 47.895478,5.81981662 47.5680474,5.81981662 C44.5351103,5.82031435 41.5026678,5.82031435 38.4702253,5.82031435 L31.5640119,5.82031435 C31.4769609,5.82031435 31.3904044,5.82379847 31.303848,5.81981662 C31.1960234,5.81483931 31.1445842,5.85863962 31.1505195,5.97062905 C31.154971,6.04578639 31.1510141,6.11994828 31.1510141,6.19460789 C31.1510141,8.74796677 31.1500249,11.3013256 31.1515087,13.8546845 C31.1520033,14.2608328 31.1030371,14.2100643 31.5066374,14.2100643 C35.8760057,14.2110597 40.2448793,14.2100643 44.6142476,14.2125529 C45.132597,14.2130507 45.0697817,14.1314228 45.0702763,14.6595152 C45.073244,16.2666878 45.0722548,17.872865 45.070771,19.4800377 C45.070771,19.8498517 45.1142965,19.8125219 44.7304806,19.8130196 C40.3487471,19.8135173 35.9675082,19.8130196 31.5857747,19.8135173 C31.1510141,19.8135173 31.1510141,19.8135173 31.1510141,20.2400726 L31.1510141,27.8254896 C31.1510141,27.8503761 31.1505195,27.8752627 31.1510141,27.900647 C31.1564548,28.3062975 31.1005641,28.2550313 31.5061427,28.255529 C36.3330236,28.2565245 41.160399,28.2560267 45.9872798,28.2560267 C46.5442086,28.2560267 47.101632,28.2649859 47.6580661,28.2505517 C47.858877,28.2455744 47.9028972,28.312768 47.9024066,28.5029012 C47.8964672,30.2220633 47.8999295,31.9402299 47.8984457,33.659392 C47.8979511,33.9177143 47.8915212,33.918212 47.6264112,33.9231893 C47.5517254,33.9251802 47.4780288,33.923687 47.4038375,33.923687 C38.1205374,33.923687 28.8377318,33.9216961 19.5549263,33.9296619 C19.2537099,33.9301575 19.0647696,33.8435524 18.8733563,33.6056371 C15.576793,29.5008514 12.2693484,25.4035317 8.96388222,21.3062119 C8.90947532,21.2385205 8.84913313,21.1772997 8.77939338,21.1001514 C8.11365083,21.8497339 7.455822,22.5913528 6.79848779,23.3324739 C6.49380917,23.6759081 6.20100116,24.0317856 5.87950587,24.3592925 C5.68067339,24.5628644 5.62082581,24.7788795 5.62132042,25.0566133 C5.62972876,27.8717786 5.62725572,30.6864461 5.62577189,33.5021091 C5.62577189,33.9769442 5.67572731,33.9221939 5.2132687,33.9226916 C3.59144862,33.9241848 1.97012314,33.923687 0.349292268,33.9226916 C0.0277969774,33.9226916 0.0248293286,33.9197052 0.0248293286,33.5976734 C0.0238401123,31.1936338 0.0243347204,28.7895941 0.0238401123,26.3865499 C0.0238401123,26.236733 0.0179048146,26.0874137 0.0149371658,25.9385922 C0.0668710204,25.8271005 0.10940732,25.7096361 0.171233338,25.6036194 C0.573349754,24.9172487 0.916113194,24.2000186 1.22771632,23.4683544 C1.29399381,23.3125647 1.38351789,23.1612545 1.38401249,22.9561894 C1.20941582,23.0343332 1.12434322,23.1702137 1.02641081,23.29166 C0.722721412,23.6679444 0.384409445,24.0128719 0.0480759111,24.3587948 C0.040656789,24.2114665 0.0258185448,24.0631427 0.0258185448,23.9148189 C0.019388639,22.5883664 0.0149371658,21.2629093 0.0104856925,19.9369546 C0.0807200482,19.8498517 0.145019106,19.7577715 0.221683368,19.6781346 C1.14313833,18.7140301 1.91967311,17.6424157 2.56464212,16.4727484 C2.61707058,16.3776818 2.6299304,16.2910766 2.63388726,16.1915305 C2.66900444,15.3319494 2.60223234,14.4788389 2.47264501,13.6287147 C2.20852426,11.899598 1.73567888,10.2321999 1.01256178,8.63946146 C0.720248372,7.9963933 0.425956529,7.35282741 0.0109803007,6.77446425" id="Fill-1" fill="#28241C" mask="url(#mask-2)"></path>
                    </g>
                    <path d="M46.1094972,2.50519444 C46.0906877,2.51608098 46.0614835,2.52350362 46.0565337,2.53884374 C46.0510888,2.55517354 46.0639585,2.5908022 46.0778181,2.59723516 C46.1149421,2.61208043 46.1471162,2.5942661 46.1481062,2.55220449 C46.1486012,2.53686437 46.1233569,2.52102941 46.1094972,2.50519444 M38.966344,24.9656025 C38.6262881,25.6925262 38.370875,26.453594 38.0822977,27.1998165 C36.880965,30.3094071 35.6905219,33.4229563 34.4926541,36.5340314 C34.4495902,36.6453709 34.4362256,36.7789784 34.3065391,36.8655759 C30.8267825,27.7114837 27.3490058,18.5613503 23.8440049,9.34094929 C20.339994,18.5573916 16.8612274,27.7099992 13.3517716,36.9407919 C8.8810516,25.2724049 4.43904084,13.6797287 0,2.09447514 C0.0935524887,2.00243442 0.182650097,2.03459919 0.262342958,2.03459919 C2.08339907,2.03261982 3.90445519,2.03163013 5.7255113,2.03410435 C6.0497276,2.03459919 5.99973394,1.96927997 6.13239038,2.32804082 C8.48159732,8.67093249 10.8322892,15.0138242 13.1844661,21.356221 C13.2309948,21.4809213 13.2468344,21.623436 13.375036,21.7357652 C13.5779805,21.1983662 13.7799351,20.6723486 13.9764448,20.1443516 C16.1910154,14.1983237 18.4055859,8.25279054 20.6147116,2.30478322 C20.6899496,2.1033823 20.7835021,2.02618687 21.008721,2.02717655 C22.8916505,2.03756824 24.7745799,2.03261982 26.6575094,2.03311466 C26.9644012,2.0336095 26.9648961,2.03509403 27.0713183,2.32061818 C29.0319607,7.58425827 30.992108,12.8478984 32.9532454,18.1110436 C33.4012084,19.313511 33.8531312,20.5154835 34.307529,21.7283426 C34.4461253,21.64224 34.4520652,21.4952717 34.495624,21.3794786 C36.210258,16.7883295 37.921427,12.1961907 39.6321011,7.60405197 C40.2825136,5.85725781 40.9314412,4.1099688 41.5808638,2.36317464 C41.7031255,2.03410435 41.7026305,2.03311466 42.0451613,2.03311466 C43.6929721,2.03311466 45.3402879,2.03113529 46.9876037,2.03558887 C47.2395519,2.03608372 47.4751656,1.99798084 47.7117692,1.90742466 C48.8269743,1.4833446 49.9827683,1.21068636 51.1647965,1.06322328 C51.853818,0.977615524 52.5448195,0.95138887 53.2254262,1.16417116 C53.7565469,1.32994341 54.1822355,1.62041598 54.4594281,2.11080494 C54.4485384,2.16177372 54.4658629,2.19938175 54.5118967,2.22412388 C54.5297162,2.26420613 54.5480307,2.30478322 54.5658502,2.34486546 C54.6277236,2.77785268 54.6148539,3.20242758 54.4277489,3.60819847 C54.3604307,3.75269249 54.2926176,3.89718651 54.2252994,4.04118569 L54.2054999,4.04563927 L54.2109448,4.06493813 C54.1352118,4.11046364 54.0985828,4.18271065 54.0748234,4.26386483 L54.0599738,4.282174 C53.977806,4.32473046 53.9243474,4.38905999 53.904548,4.48011102 L53.903063,4.48159555 C53.8585142,4.48654397 53.8387147,4.51475 53.8357448,4.55681161 L53.8312899,4.5612652 C53.7877311,4.56423425 53.7649617,4.58749185 53.7610018,4.63004831 L53.7565469,4.63499674 C53.7124931,4.63796579 53.6892288,4.6602337 53.6862588,4.70377985 L53.681804,4.70872827 C53.5644921,4.78938761 53.4070863,4.83639765 53.419461,5.02443781 C53.1402885,5.12489085 52.9531835,5.36093074 52.6720311,5.48117748 C51.2484493,6.0898338 49.8001182,6.61139784 48.2899137,6.96521025 C47.3182548,7.19283782 46.3441209,7.34178543 45.3447428,7.3135794 C44.8591608,7.29972381 44.4003081,7.20669341 43.9642248,6.98055037 C43.7107916,6.84892226 43.5380413,6.64603682 43.5024022,6.39168775 C43.4454787,5.97948392 43.4395389,5.56579555 43.6256539,5.15854014 C43.8276085,4.71664575 44.1241055,4.34007058 44.3730838,3.93133064 C44.3933783,3.91054726 44.4141677,3.89025871 44.4349572,3.86947533 C44.4631714,3.84720741 44.4963355,3.8284034 44.5195999,3.8016819 C44.5468242,3.77001198 44.6082025,3.73735237 44.5671186,3.68984748 C44.5285097,3.64481681 44.479506,3.67945579 44.4438669,3.71409477 C44.4186226,3.73933174 44.3978332,3.76852745 44.3745688,3.79574379 C44.3488295,3.82048591 44.3230902,3.8447332 44.2973509,3.86848564 C44.2265678,3.91747505 44.1503398,3.95904183 44.0854966,4.01446419 C41.8531065,5.93841198 40.1622319,8.2557596 39.0341572,10.9803626 C38.8970458,11.3114123 38.7708242,11.6414723 38.7292453,12.0056764 C38.6149034,13.0047635 38.8683366,13.8360989 39.749413,14.4106111 C40.3973506,14.8327118 41.124486,15.051927 41.8793408,15.0915144 C42.3669027,15.1162566 42.8673343,15.051927 43.360341,15.0746898 C43.9434354,15.1009164 44.5200949,15.0336179 45.0952695,14.9875975 C45.7397422,14.9351442 46.37877,14.7980728 47.0163129,14.6768364 C48.5329522,14.3878484 50.0189023,13.9746548 51.482083,13.4887195 C52.3478148,13.2012159 53.2021618,12.8765992 54.0471041,12.5262507 C54.9727293,12.1427477 55.8731101,11.7112451 56.7700261,11.2688558 C57.0204893,11.14564 57.0194994,11.142671 57.18235,11.3747521 C57.7317852,12.5361476 57.6738718,13.7010069 57.1769051,14.8544849 C56.6319248,16.1202921 55.6756104,17.0105138 54.501502,17.6899326 C53.9535517,18.0056422 53.3595676,18.2194141 52.7789482,18.461887 C50.3347038,19.4827471 48.0572699,20.7846779 46.0169347,22.4814929 C45.3996863,22.9946446 44.7992674,23.5300643 44.2978459,24.1644524 C44.182514,24.3346782 44.0350079,24.3930697 43.8182037,24.3846573 C43.39994,24.3673378 42.9831612,24.3341834 42.5663823,24.3193381 C41.8273672,24.2926166 41.1017167,24.2154212 40.3914107,24.0095667 C39.5850774,23.7764959 38.8455672,23.4380236 38.3659251,22.6997185 C38.3456306,22.6675537 38.3193963,22.6428116 38.2347536,22.6591414 C38.2723726,22.7952231 38.3134565,22.9313048 38.3476106,23.0693659 C38.5099662,23.7156302 38.779239,24.3272556 38.966344,24.9656025" id="Fill-4" fill="#28241C"></path>
                    <path d="M52.9374522,33.7963892 C52.9846993,33.991141 52.9241639,34.0483909 52.7204104,34.0652591 C51.2276945,34.1915155 49.7339943,34.1260871 48.2402941,34.1179085 C48.2166705,34.1179085 48.1930469,34.1301764 48.1694233,34.1363103 C47.2919052,33.7703201 46.4640951,33.3072096 45.6594164,32.7919609 C44.8542455,32.276201 44.1160082,31.6750775 43.3871219,31.0519741 C43.0357209,30.7519235 42.7473162,30.3854221 42.379674,30.109396 C42.4082192,30.0030748 42.4628488,29.9734276 42.5716157,30.006653 C42.839842,30.0904831 43.0937956,30.2141837 43.3605453,30.3056812 C43.9772196,30.5183236 44.6091508,30.606243 45.2514172,30.6849616 C45.8410228,30.7585685 46.4261989,30.7432337 47.0133437,30.7437449 C47.524696,30.7437449 48.0321112,30.6517362 48.5410028,30.6123769 C49.1384829,30.5673949 49.7241511,30.4600514 50.3103116,30.3573083 C50.9319074,30.2499649 51.5475973,30.1007063 52.1632873,29.9570705 C53.7908545,29.5798348 55.3829863,29.0702088 56.9618299,28.5191789 C57.5849022,28.301425 58.1961627,28.0448229 58.8118527,27.8040668 C58.9398138,27.7544843 59.064822,27.7033684 59.1716203,27.8439373 C58.4535615,28.4077461 57.6710299,28.8616558 56.8766865,29.2966525 C56.0291901,29.7612964 55.1679132,30.2019159 54.3588051,30.7381222 C53.9010979,31.0407286 53.4645536,31.372471 53.1131526,31.8084901 C52.8705186,32.1100742 52.6958025,32.4479506 52.682022,32.8451215 C52.6702102,33.1840202 52.6603671,33.5351867 52.9374522,33.7963892" id="Fill-6" fill="#28241C"></path>
                    <path d="M45.9905691,1.71734904 C46.0129584,1.74210825 46.0537388,1.76766615 46.0529392,1.79242536 C46.05134,1.86031352 45.9993649,1.88906616 45.9393937,1.86510563 C45.9170044,1.85472273 45.8962144,1.79801615 45.9050101,1.77086088 C45.9130063,1.74610167 45.9601837,1.73412141 45.9905691,1.71734904" id="Fill-8" fill="#A3944A"></path>
                    <path d="M74.1949282,15.5185093 C73.9326098,13.8199848 73.4629912,12.182087 72.7448086,10.6180168 C72.45449,9.98632604 72.1622064,9.35316852 71.750062,8.78552692 C71.6572189,8.89260143 71.7009387,9.01825509 71.7068335,9.13706379 C71.7535006,10.0865556 71.5491477,10.9710204 71.0643008,11.7968143 C70.4419087,12.8548474 69.6087776,13.7319783 68.7098214,14.5504383 C67.757812,15.4173019 66.7183631,16.1770909 65.6415806,16.8830982 C64.1143374,17.8863717 62.5281463,18.7879489 60.8962705,19.612276 C59.3975189,20.3696204 57.8958199,21.1171863 56.3224008,21.7141634 C54.1300283,22.5453354 51.8895149,23.2092952 49.5905448,23.6771961 C48.0485647,23.9910858 46.494795,24.2076795 44.9228496,24.2815071 C44.9100776,24.281996 44.8973055,24.2839517 44.8845334,24.2863963 C43.0163746,24.3357777 39.9997133,24.1045163 38.3815916,22.3126072 C38.3815916,22.3126072 38.3796271,22.7443278 38.6321208,23.3745517 C38.7937364,23.9275256 39.0192124,24.4599646 39.1818105,25.0124495 C39.2260214,25.0994781 39.2761272,25.1835732 39.3139521,25.2720686 C39.4952171,25.7037891 39.6956401,26.1247533 39.9117826,26.5374058 L39.9112913,26.5369168 C39.9112913,26.5369168 39.912765,26.5393615 39.91473,26.5432729 C40.186873,27.0615331 40.4845602,27.5665923 40.8043528,28.0584506 C41.4056219,29.0250547 42.2117351,30.2033633 42.897005,30.8081632 C44.5057929,32.4392161 48.061828,31.8397944 48.061828,31.8397944 C55.0697569,31.2941544 60.6835667,28.6026238 60.6835667,28.6026238 L60.6830755,28.6021349 C61.1620276,28.4168324 61.6341024,28.2129508 62.105686,28.010047 C63.3637335,27.4678295 64.5883772,26.8566736 65.7776521,26.1775572 C67.1919117,25.3683867 68.542311,24.4692542 69.8126393,23.4483794 C70.4900495,22.9032283 71.1109679,22.2994063 71.7495707,21.7146523 C71.8193258,21.6295794 71.8831861,21.5391283 71.9593272,21.4604114 C72.8744941,20.5133642 73.6457298,19.4607093 74.2867888,18.3122251 C74.3383682,18.2188405 74.3511403,18.1337676 74.3550701,18.0359827 C74.3899477,17.1916097 74.3241225,16.3535927 74.1949282,15.5185093" id="Fill-10" fill="#A3944A"></path>
                    <path d="M40.3027092,14.8507586 C40.3022218,14.8507586 40.3261016,14.8604207 40.3743483,14.8744308 C40.518114,14.9217752 40.6643164,14.9609068 40.8124681,14.9918256 C40.9674426,15.0246768 41.1243665,15.0488322 41.2827523,15.0647747 C42.7223582,15.2696117 45.7716521,15.3517398 50.5880452,13.7913064 C54.7816162,12.4835376 57.7163849,10.6515985 57.7163849,10.6515985 C58.7529596,10.0593102 59.7549331,9.41484636 60.6955017,8.67424439 C61.7505954,7.84523396 62.7067588,6.92443334 63.4767579,5.82246784 C64.0800863,4.95915686 64.4909149,4.01420092 64.7185033,2.99001554 C64.8174335,2.54362531 64.8008639,2.50787545 64.39101,2.27791684 C63.3393277,1.68901025 62.2423226,1.19720803 61.0892733,0.836327612 C59.4449841,0.321336285 57.7729165,-0.0443751918 56.0326211,0.0102158213 C55.9614693,0.0126313528 55.8615643,-0.0434089792 55.8152669,0.0841310867 C55.9073744,0.143070057 56.0043553,0.195245538 56.0886653,0.261914209 C56.4712281,0.567237397 56.709538,0.945992744 56.6374115,1.45277126 C56.5862407,1.81316857 56.4673294,2.1518261 56.2616714,2.46198035 C55.4833875,3.63641179 54.4112369,4.46252358 53.1524346,5.07123753 C53.0905422,5.18235198 52.9453146,5.16592637 52.8697767,5.25385171 C52.5954036,5.35192229 52.4111886,5.58284711 52.1343788,5.69975884 C50.7327855,6.29446271 49.3068252,6.80317365 47.8199472,7.14859466 C46.8637838,7.37082357 45.9042089,7.51672167 44.920267,7.48870151 C44.4875081,7.47662385 44.0752174,7.40077616 43.6824204,7.22154372 C42.04934,5.99010573 44.4377993,3.73883032 44.4377993,3.73883032 C44.3339956,3.79776929 44.2297046,3.86395486 44.1293123,3.93352217 C44.0966604,3.92192762 44.0610845,3.94801536 44.0333061,3.97506931 C44.0118631,3.99632599 43.9933441,4.0204813 43.9738504,4.04415351 C43.8939265,4.10260938 43.8188759,4.16154835 43.7506482,4.21565625 C43.7262811,4.23208187 43.7028887,4.24899059 43.680471,4.26783173 C43.6356356,4.30599713 43.5917749,4.34464564 43.5474269,4.38281104 C43.4538574,4.46348979 43.3973258,4.51518217 43.3973258,4.51518217 C41.3392839,6.34422266 39.7695579,8.52448143 38.7071541,11.0685193 C38.5721606,11.3917174 38.4478886,11.7139493 38.4069519,12.0699986 C38.2943761,13.0449072 38.5438948,13.8570089 39.4113621,14.4174122 C39.6945074,14.6005095 39.9932475,14.7444752 40.3027092,14.8507586 Z" id="Fill-12" fill="#A3944A"></path>
                    <path d="M72.3505049,24.6190717 L72.3505049,24.6190717 C72.2971037,24.676313 72.253154,24.7388455 72.2058963,24.7980108 C71.915734,25.1611803 71.5924913,25.4945266 71.2716114,25.829797 C70.4242808,26.7163154 69.5230763,27.5455925 68.5646901,28.3046407 C66.9692699,29.5677971 65.2547604,30.642875 63.4287226,31.5289124 C61.9939787,32.2254282 60.5143399,32.7920688 58.9912241,33.2307583 C58.6405719,33.3279242 56.9180286,33.7897026 54.679431,34.1139095 C54.5300967,34.1293021 54.3798172,34.1422896 54.2290651,34.1523911 C54.1132837,34.1610494 53.9979749,34.1826953 53.8826661,34.1976069 C53.8845564,34.2057842 53.8859742,34.2120374 53.8873919,34.2192527 C52.3562422,34.4063692 50.6483488,34.5093073 49,34.3890525 C49,34.3890525 50.2003457,35.0494918 52.4569012,35.5401314 C52.4743865,35.5439796 52.4918719,35.5478277 52.5093572,35.5516759 C52.5377118,35.5574481 52.566539,35.5632203 52.5958388,35.5699546 C52.6204128,35.5747648 52.6454594,35.580056 52.6700334,35.5858282 C53.4786128,35.7527419 54.4138427,35.8956046 55.4714702,35.980264 L55.4969894,35.9605422 C56.2157791,36.0019098 56.9435477,35.9773779 57.6689535,35.8936805 C59.2242046,35.7147414 60.7482656,35.4155474 62.2189254,34.8618944 C65.4617491,33.6410677 68.1332272,31.6337746 70.2281613,28.8308757 C70.3326008,28.6904181 70.4332598,28.5465934 70.5315558,28.4018066 L70.5310832,28.4032497 C70.5310832,28.4032497 70.7437429,28.1136761 71.0471373,27.6321759 C71.1104627,27.5388582 71.1742606,27.4469835 71.2394762,27.3555899 C71.2588519,27.3137412 71.2772824,27.2699685 71.2961855,27.2266767 C71.7895559,26.3993237 72.4086318,25.2261179 72.7881112,24 L72.3505049,24.6190717 Z" id="Fill-14" fill="#A3944A"></path>
                </g>
            </g>
        </g>
    </g>
</svg>